<svg xmlns="http://www.w3.org/2000/svg" version="1.1" xmlns:xlink="http://www.w3.org/1999/xlink" width="2000" height="1500" viewBox="0 0 2000 1500"><rect width="2000" height="1500" x="0" y="0" id="background" stroke="transparent" fill="#8b1a1a"></rect><svg xml:space="preserve" width="1500" height="1125" data-version="2" data-id="lg_QOGrcxMVHRJZlb8iOr" viewBox="0 0 440 482" x="250" y="187.5"><rect width="100%" height="100%" fill="transparent"></rect><g transform="translate(220 241)"><filter id="a" width="144.64%" height="144.22%" x="-22.32%" y="-22.11%"><feGaussianBlur in="SourceAlpha" stdDeviation="5"></feGaussianBlur><feOffset result="oBlur"></feOffset><feFlood flood-color="#F75CFF" flood-opacity="1"></feFlood><feComposite in2="oBlur" operator="in"></feComposite><feMerge><feMergeNode></feMergeNode><feMergeNode in="SourceGraphic"></feMergeNode></feMerge></filter><g filter="url(#a)"><path fill="#fdd5ff" d="M-22.5 20.77q-9.18 0-21.27-.85-12.08-.84-24.41-2.78.49 6.29.73 12.57.24 6.29.24 12.33 0 27.31-4.83 49.79-4.84 22.48-14.51 38.43-9.66 15.95-24.05 24.77-14.38 8.83-33.23 8.83-14.26 0-32.02-5.32-17.77-5.32-39.76-19.1l4.83-7.73q18.85 11.6 35.65 17.16 16.8 5.56 31.3 5.56 15.71 0 25.86-5.68 10.15-5.68 16.08-14.99 5.92-9.3 8.21-21.15 2.3-11.84 2.3-24.17 0-17.16-2.3-36.73-2.29-19.58-4.23-41.33-11.11-3.87-18.12-9.07-7.01-5.19-7.01-12.2 0-6.77 6.4-11.73 6.41-4.95 16.8-7.61 0-20.79 3.14-40.73 3.14-19.94 7.86-37.58 4.71-17.64 10.15-32.63 5.44-14.98 10.27-25.74 4.84-10.76 8.1-16.8 3.26-6.04 3.5-6.04l8.46 4.11q0 .24-3.87 9.55-3.86 9.3-8.45 26.22-4.6 16.92-8.46 40.6-3.87 23.69-3.87 52.7v11.72q0 6.16.48 12.2 26.83 1.21 45.56 12.09Q-8.24-9.68 5.54 9.41q20.79-4.35 40-14.87 19.22-10.51 33.84-26.7Q94-48.36 102.82-69.87q8.83-21.51 8.83-47.61 0-20.79-6.17-37.1-6.16-16.32-16.43-28.52-10.27-12.21-23.69-20.67-13.41-8.46-27.67-13.66-14.26-5.19-28.4-7.49-14.14-2.29-25.99-2.29-33.35 0-60.06 5.07-26.71 5.08-47.25 12.81-20.54 7.74-35.41 16.68-14.86 8.94-24.53 16.68-9.67 7.73-14.26 13.05l-4.59 5.32-7.98-5.32q.73-.73 5.8-6.53 5.08-5.8 15.11-13.9 10.03-8.09 25.38-17.52 15.34-9.43 36.73-17.28 21.39-7.86 48.95-13.17 27.55-5.32 62.11-5.32 19.82 0 39.4 3.02t37.22 9.19q17.65 6.16 32.75 15.83 15.11 9.66 26.11 22.84 10.99 13.17 17.28 30.21 6.28 17.04 6.28 38.07 0 30.21-10.99 53.53-11 23.33-29.25 40.13Q83.85-7.03 60.29 3.49 36.72 14 11.58 18.35q8.46 13.05 14.75 29.01 7.49 17.88 13.65 37.1 6.17 19.21 12.93 37.58 6.77 18.37 14.87 34.81 8.1 16.43 19.09 28.88 11 12.45 25.86 19.7 14.87 7.25 35.41 7.25 14.51 0 29.61-6.41 15.11-6.4 30.82-20.66l6.04 6.77q-8.94 8.7-18.37 16.55-9.42 7.86-19.7 13.78-10.27 5.92-21.63 9.43-11.36 3.5-24.41 3.5-19.58 0-33.96-5.44-14.38-5.44-25.02-15.23-10.63-9.78-17.88-23.08-7.25-13.29-12.57-28.88t-9.3-33.11q-3.99-17.53-7.86-35.41-4.83-22-10.76-40.85Q7.23 34.79-1.71 19.8q-5.32.73-10.51.85-5.2.12-10.28.12m-49.06-43.99q.48 7.73 1.33 15.83.84 8.1 1.57 15.83 9.18 1.94 21.03 2.66 11.84.73 26.1.73h7.01q3.63 0 7.25-.49-11.12-15.22-26.47-24.29-15.34-9.06-37.82-10.27M-98.87-.02q-.49-4.83-.73-10.03-.24-5.19-.24-10.27-6.28 1.45-10.03 3.87-3.75 2.41-3.75 5.07 0 1.94 3.51 4.96 3.5 3.02 11.24 6.4"></path><rect width="430.22" height="472.28" x="-215.11" y="-236.14" fill="none" rx="0" ry="0"></rect></g></g></svg></svg>